<svg xmlns="http://www.w3.org/2000/svg" width="512" height="512" viewBox="0 0 512 512">
  <defs>
    <linearGradient id="grad" x1="0" x2="1" y1="0" y2="1">
      <stop offset="0%" stop-color="#1E88E5"/>
      <stop offset="100%" stop-color="#5C6B4F"/>
    </linearGradient>
  </defs>
  <rect width="512" height="512" rx="120" fill="url(#grad)"/>
  <path d="M144 160h224a16 16 0 0 1 16 16v200a16 16 0 0 1-16 16H144a16 16 0 0 1-16-16V176a16 16 0 0 1 16-16zm16 48v152h192V208H160zm32-80h32v32h-32v-32zm96 0h32v32h-32v-32z" fill="#fff"/>
</svg>
